<?xml version="1.0" encoding="UTF-8"?>
<svg width="48" height="48" viewBox="0 0 48 48" fill="none" xmlns="http://www.w3.org/2000/svg">
  <rect width="48" height="48" rx="24" fill="#FDF4FF"/>
  <path d="M32 16H16C14.9 16 14 16.9 14 18V30C14 31.1 14.9 32 16 32H32C33.1 32 34 31.1 34 30V18C34 16.9 33.1 16 32 16ZM31 26H27C27 27.66 25.66 29 24 29C22.34 29 21 27.66 21 26H17V18H31V26ZM24 27C24.55 27 25 26.55 25 26C25 25.45 24.55 25 24 25C23.45 25 23 25.45 23 26C23 26.55 23.45 27 24 27Z" fill="#D946EF"/>
</svg> 