<?xml version="1.0" encoding="UTF-8"?>
<svg width="48" height="48" viewBox="0 0 48 48" fill="none" xmlns="http://www.w3.org/2000/svg">
  <rect width="48" height="48" rx="24" fill="#F0FDF4"/>
  <path d="M32 16H16C14.9 16 14 16.9 14 18V30C14 31.1 14.9 32 16 32H32C33.1 32 34 31.1 34 30V18C34 16.9 33.1 16 32 16ZM24 17.5C25.38 17.5 26.5 18.62 26.5 20C26.5 21.38 25.38 22.5 24 22.5C22.62 22.5 21.5 21.38 21.5 20C21.5 18.62 22.62 17.5 24 17.5ZM30 28.5H18C17.45 28.5 17 28.05 17 27.5V26.5C17 24.85 20.67 24 24 24C27.33 24 31 24.85 31 26.5V27.5C31 28.05 30.55 28.5 30 28.5Z" fill="#22C55E"/>
</svg> 