<?xml version="1.0" encoding="UTF-8"?>
<svg width="48" height="48" viewBox="0 0 48 48" fill="none" xmlns="http://www.w3.org/2000/svg">
  <circle cx="24" cy="24" r="20" fill="#F0F9FF"/>
  <path d="M24 12C17.373 12 12 17.373 12 24C12 30.627 17.373 36 24 36C30.627 36 36 30.627 36 24C36 17.373 30.627 12 24 12ZM30 26H26V30C26 31.1 25.1 32 24 32C22.9 32 22 31.1 22 30V26H18C16.9 26 16 25.1 16 24C16 22.9 16.9 22 18 22H22V18C22 16.9 22.9 16 24 16C25.1 16 26 16.9 26 18V22H30C31.1 22 32 22.9 32 24C32 25.1 31.1 26 30 26Z" fill="#0EA5E9"/>
</svg> 